<svg enable-background="new 0 0 400 110" viewBox="0 0 400 110" xmlns="http://www.w3.org/2000/svg" xmlns:xlink="http://www.w3.org/1999/xlink"><linearGradient id="a" gradientUnits="userSpaceOnUse" x1="59.0986" x2="59.0986" y1="140.0787" y2="-48.3286"><stop offset=".1" stop-color="#ffdd0f"/><stop offset=".1368" stop-color="#fed710"/><stop offset=".1877" stop-color="#fcc512"/><stop offset=".2468" stop-color="#f9a816"/><stop offset=".312" stop-color="#f57f1b"/><stop offset=".3815" stop-color="#f04b22"/><stop offset=".4328" stop-color="#eb2027"/><stop offset=".5066" stop-color="#bb2641"/><stop offset=".6079" stop-color="#7f2d62"/><stop offset=".6943" stop-color="#53327a"/><stop offset=".7613" stop-color="#383589"/><stop offset=".8006" stop-color="#2e368e"/></linearGradient><path d="m117.3 106.7-33.5-89.5c-3.9-10.3-13.7-17.1-24.7-17.1s-20.8 6.8-24.7 17.1l-33.5 89.5c-.5 1.4.5 2.8 1.9 2.8h21.2c7.4 0 14-4.6 16.6-11.5l7.5-20.1c.2-.6 2.7-7.7.6-14.6-.4-1.6-.8-3.5-1.3-5.7-.3-1.4-.5-2.9-.5-4.5 0-.3-.5-.4-.6-.1-.4 1.1-.8 2.1-1.2 2.9-1.4 2.6-2.9 5.1-4.5 6.5-.4.3-.6.8-.6 1.3 0 1.9-.7 4.2-2 6.2-2.4 3.7-6.2 7.7-6.8 9.8-.6 2-3 10.5-4.6 11.3-1.1.6-4-.1-5.8-2.2-.6-.8 1.8-2.2 2.4-3.3.9-1.5 1-2-.3-1.5s-3.3.4-3.3-.7c0-.7 1.6-.5 3.4-1.6 1.8-1.2 2.6-1.8 4.3-2.6 1.6-.8 2.8-6.9 3.7-11.7.6-2.9 2.2-5.1 3.7-6.3.3-.3.6-.7.6-1.1.3-2 1.3-4.5 2-5.6 1.5-2.3 1.8-3.6 2-6.6.5-5.8 6.3-7.5 10.6-7.5 2.2 0 3.7-3.8 4.2-3.8 1.3 0 1.9 5.3 4.7 5.3s3.4-5.3 4.7-5.3c.5 0 2 3.8 4.2 3.8 4.3 0 10.1 1.7 10.6 7.5.2 3 .6 4.2 2 6.6.7 1.1 1.8 3.6 2 5.6.1.4.3.8.6 1.1 1.5 1.2 3.1 3.4 3.7 6.3 1 4.8 2.1 10.9 3.7 11.7s2.5 1.5 4.3 2.6c1.8 1.2 3.5.9 3.4 1.6-.1 1-2 1.2-3.3.7s-1.2 0-.3 1.5c.6 1.1 3.1 2.6 2.4 3.3-1.8 2.1-4.7 2.8-5.8 2.2-1.6-.9-4-9.3-4.6-11.3s-4.4-6.1-6.8-9.8c-1.3-2-2-4.3-2-6.2 0-.5-.2-1-.6-1.3-1.6-1.4-3.1-3.9-4.5-6.5-.4-.8-.8-1.8-1.2-2.9-.1-.3-.6-.2-.6.1 0 1.5-.2 3.1-.5 4.5-.5 2.2-.9 4.2-1.3 5.7-1.7 7.2 1.1 14.6 1.1 14.6l7.5 20c2.6 6.9 9.2 11.5 16.6 11.5h21.2c1.5.1 2.5-1.4 2-2.7zm-51.7-76.5c-.4.5-.9 1-1.2.9-.1 0-.2 0-.2-.1-.2 1.5-.5 2.7-1 3.2-1.3 1.3-2.8 2.6-4 2.6-1.3 0-2.8-1.3-4-2.6-.5-.5-.8-1.7-1-3.2-.1 0-.2.1-.2.1-.2 0-.8-.4-1.2-.9s-.5-2.7-.5-3.3c.1-.6.3-.6.7-.6.2 0 .4.2.6.3.1.1.3 0 .2-.1 0-.9 0-1.8-.1-2.5-.1-3.1 1.6-5.8 5.4-5.8 3.9 0 5.5 2.7 5.4 5.8 0 .7 0 1.6-.1 2.5 0 .1.2.2.2.1.2-.2.4-.3.6-.3.4 0 .7 0 .7.6.2.7.1 2.8-.3 3.3z" fill="url(#a)"/><g fill="#59595c"><path d="m197.5 62.8-3.2 8.7c-.1.3-.4.5-.7.5h-.7c-.3 0-.6-.2-.7-.5l-2.8-7.7-2.8 7.7c-.1.3-.4.5-.7.5h-.9c-.3 0-.6-.2-.7-.5l-3.2-8.7c-.2-.5.2-1 .7-1h.2c.3 0 .6.2.7.5l2.6 7.7 2.8-7.7c.1-.3.4-.5.7-.5h.7c.3 0 .6.2.7.5l2.8 7.7 2.7-7.7c.1-.3.4-.5.7-.5h.2c.7 0 1 .5.9 1z"/><path d="m217.3 71.2c0 .4-.3.8-.8.8h-8.6c-.4 0-.8-.3-.8-.8v-8.7c0-.4.3-.8.8-.8h8.5c.4 0 .8.3.8.8 0 .4-.3.8-.8.8h-7.5v2.7h6.2c.4 0 .8.3.8.8 0 .4-.3.8-.8.8h-6.2v2.9h7.7c.3 0 .7.3.7.7z"/><path d="m236.1 71.2c0 .4-.3.8-.8.8h-7.7c-.4 0-.8-.3-.8-.8v-8.7c0-.4.3-.8.8-.8h.2c.4 0 .8.3.8.8v7.1c0 .4.3.8.8.8h6c.4.1.7.4.7.8z"/><path d="m254.6 71.2c0 .4-.3.8-.8.8h-7.7c-.4 0-.8-.3-.8-.8v-8.7c0-.4.3-.8.8-.8h.2c.4 0 .8.3.8.8v7.1c0 .4.3.8.8.8h6c.4.1.7.4.7.8z"/><path d="m275 62.6v8.7c0 .4-.3.8-.8.8h-.5c-.2 0-.4-.1-.5-.2l-7.8-7.8v7.3c0 .4-.3.8-.8.8h-.2c-.4 0-.8-.3-.8-.8v-8.7c0-.4.3-.8.8-.8h.8c.2 0 .4.1.5.2l7.4 7.5v-7c0-.4.3-.8.8-.8h.2c.6 0 .9.3.9.8z"/><path d="m295.6 71.2c0 .4-.3.8-.8.8h-8.6c-.4 0-.8-.3-.8-.8v-8.7c0-.4.3-.8.8-.8h8.5c.4 0 .8.3.8.8 0 .4-.3.8-.8.8h-7.5v2.7h6.2c.4 0 .8.3.8.8 0 .4-.3.8-.8.8h-6.2v2.9h7.7c.4 0 .7.3.7.7z"/><path d="m316 69c0 1.9-1.9 3.3-5.4 3.3-2.1 0-3.9-.5-5.4-1.5-.4-.3-.5-.8-.1-1.1l.1-.1c.3-.3.7-.3 1-.1 1.3.9 2.7 1.4 4.5 1.4 2.3 0 3.5-.6 3.5-1.7s-1.3-1.3-3.9-1.5c-2.8-.2-5.5-.9-5.5-2.9s2.3-3.2 5.3-3.2c1.8 0 3.4.4 4.6 1.2.4.2.5.8.1 1.2v.1c-.3.3-.7.3-1 .1-1-.7-2.2-1-3.7-1-1.6 0-3.5.4-3.5 1.5s1.7 1.3 3.9 1.4c3.3.1 5.5.7 5.5 2.9z"/><path d="m336.3 69c0 1.9-1.9 3.3-5.4 3.3-2.1 0-3.9-.5-5.4-1.5-.4-.3-.5-.8-.1-1.1l.1-.1c.3-.3.7-.3 1-.1 1.3.9 2.7 1.4 4.5 1.4 2.3 0 3.5-.6 3.5-1.7s-1.3-1.3-3.9-1.5c-2.8-.2-5.5-.9-5.5-2.9s2.3-3.2 5.3-3.2c1.8 0 3.4.4 4.6 1.2.4.2.5.8.1 1.2v.1c-.3.3-.7.3-1 .1-1-.7-2.2-1-3.7-1-1.6 0-3.5.4-3.5 1.5s1.7 1.3 3.9 1.4c3.3.1 5.5.7 5.5 2.9z"/></g><g fill="#221f1f"><path d="m328.8 31.4c-2.5-.2-5.1-.1-7.6-.1-.7 0-.9.3-.9 1v13.9c.1 2.2 1 3.6 3.2 3.9 1.7.3 3.5.5 5.2.3 3.6-.3 5.7-2.3 6-5.9.2-2.4.1-4.8 0-7.2-.2-3.4-2.5-5.7-5.9-5.9zm2.1 12.7c-.1 1.9-1.4 3.1-3.3 3.1-.7 0-1.5 0-2.2-.2-1-.2-1.4-.7-1.4-1.7 0-1.6 0-3.2 0-4.8s0-3.2 0-4.8c0-.7.3-1 1-1 1 0 2 0 3 .1 1.8.2 2.9 1.3 2.9 3.1.1 2 .1 4.1 0 6.2z"/><path d="m395.1 50.5c-4.3 0-6.1-1.5-6.1-5.3v-13.3c0-.3.2-.5.5-.5h2.7c.3 0 .5.2.5.5v13.3c0 1.5.6 2 2.4 2h5.2c.3 0 .5.2.5.5v2.3c0 .3-.2.5-.5.5z"/><path d="m148.4 46.3c-.5 1-1.2 1.5-1.9 1.5s-1.3-.5-1.9-1.5l-3.5-7.2v9.3c0 1.2-.9 2.1-2.1 2.1h-1.1c-.3 0-.5-.2-.5-.5v-18.1c0-.3.2-.5.5-.5h2.8c.2 0 .4.1.5.3l5.3 10.8 5.2-10.8c.1-.2.3-.3.5-.3h2.8c.3 0 .5.2.5.5v18.1c0 .3-.2.5-.5.5h-1.1c-1.2 0-2.1-.9-2.1-2.1v-9.3z"/><path d="m288.1 46.3c-.5 1-1.2 1.5-1.9 1.5s-1.3-.5-1.9-1.5l-3.5-7.2v9.3c0 1.2-.9 2.1-2.1 2.1h-1.1c-.3 0-.5-.2-.5-.5v-18.1c0-.3.2-.5.5-.5h2.8c.2 0 .4.1.5.3l5.3 10.8 5.2-10.8c.1-.2.3-.3.5-.3h2.8c.3 0 .5.2.5.5v18.1c0 .3-.2.5-.5.5h-1.1c-1.2 0-2.1-.9-2.1-2.1v-9.3z"/><path d="m167.3 50.5c-4.3 0-5.8-1.3-5.8-5.1v-13.5c0-.3.2-.5.5-.5h11.8c.1 0 .3.1.3.3v2.8c0 .1-.1.3-.3.3h-8.1c-.3 0-.5.2-.5.5v4h5.9c.2 0 .3.1.3.3l-.2 2.8c0 .1-.1.2-.3.2h-5.7v2.7c0 1.5.6 2 2.4 2h6.2c.1 0 .3.1.3.3v2.8c0 .1-.1.3-.3.3h-6.5z"/><path d="m307.2 50.5c-4.3 0-5.8-1.3-5.8-5.1v-13.5c0-.3.2-.5.5-.5h11.8c.1 0 .3.1.3.3v2.8c0 .1-.1.3-.3.3h-8.1c-.3 0-.5.2-.5.5v4h5.9c.2 0 .3.1.3.3l-.2 2.8c0 .1-.1.2-.3.2h-5.7v2.7c0 1.5.6 2 2.4 2h6.2c.1 0 .3.1.3.3v2.8c0 .1-.1.3-.3.3h-6.5z"/><path d="m189.3 49.4-3-5.7c-.1-.2-.3-.3-.5-.3h-2.4v5c0 1.2-.9 2.1-2.1 2.1h-1.1c-.3 0-.5-.2-.5-.5v-14.5c0-2.8 1.1-4.1 4.3-4.1h3.2c3.9 0 6.2 2.7 6.2 6.1 0 2.7-1.6 4.6-3.5 5.3l3.8 6.9c.2.3-.1.8-.5.8h-2.2c-.6 0-1.3-.4-1.7-1.1zm-2.3-14.7h-1.9c-1.2 0-1.7.7-1.7 1.7v3.9h3.5c1.6 0 2.7-1.3 2.7-2.8.1-1.7-1-2.8-2.6-2.8z"/><path d="m199.2 50v-18.1c0-.3.2-.5.5-.5h2.7c.3 0 .5.2.5.5v18.1c0 .3-.2.5-.5.5h-2.7c-.3 0-.5-.2-.5-.5z"/><path d="m340.7 50v-18.1c0-.3.2-.5.5-.5h2.7c.3 0 .5.2.5.5v18.1c0 .3-.2.5-.5.5h-2.7c-.2 0-.5-.2-.5-.5z"/><path d="m222 42.9c.3 0 .5.2.5.5-.2 4.6-2.7 7-7 7-5.8 0-7.3-4-7.3-8.6v-1.6c0-5.2 1.5-9.2 7.3-9.2 3.7 0 6.6 1.9 6.9 6 0 .3-.2.6-.5.6h-1.7c-.7 0-1.3-.4-1.5-1-.4-1.4-1.3-2.2-3.2-2.2-3.5 0-3.6 2.9-3.6 5.8v1.7c0 2.6.2 5.3 3.6 5.3 2.2 0 3-1.1 3.3-2.9.1-.8.8-1.3 1.5-1.3z"/><path d="m363.8 42.9c.3 0 .5.2.5.5-.2 4.6-2.7 7-7 7-5.8 0-7.3-4-7.3-8.6v-1.6c0-5.2 1.5-9.2 7.3-9.2 3.7 0 6.6 1.9 6.9 6 0 .3-.2.6-.5.6h-1.7c-.7 0-1.3-.4-1.5-1-.4-1.4-1.3-2.2-3.2-2.2-3.5 0-3.6 2.9-3.6 5.8v1.7c0 2.6.2 5.3 3.6 5.3 2.2 0 3-1.1 3.3-2.9.1-.8.8-1.3 1.5-1.3z"/><path d="m261.8 48.4c0 1.2-.8 2.1-1.8 2.1-.8 0-2-.2-3-2.1l-6.6-10.4v10.2c0 1.2-.9 2.1-2.1 2.1h-1.1c-.3 0-.5-.2-.5-.5v-18.1c0-.3.2-.5.5-.5h2.8c.2 0 .3.1.4.2l7.7 12.3v-10.4c0-1.2.9-2.1 2.1-2.1h1.1c.3 0 .5.2.5.5z"/><path d="m235.9 33c-.5-1.4-1.1-1.6-2-1.6s-1.6.3-2.1 1.6l-6 17.2c-.1.2.1.3.2.3h2c.9 0 1.7-.6 2-1.5l3.9-12.6 3.7 12.5c.3.9 1.1 1.5 2 1.5h2c.2 0 .3-.2.2-.3z"/><path d="m126.7 33c-.5-1.4-1.1-1.6-2-1.6s-1.6.3-2.1 1.6l-6 17.2c-.1.2.1.3.2.3h2c.9 0 1.7-.6 2-1.5l3.9-12.6 3.7 12.5c.3.9 1.1 1.5 2 1.5h2c.2 0 .3-.2.2-.3z"/><path d="m378.7 33c-.5-1.4-1.1-1.6-2-1.6s-1.6.3-2.1 1.6l-6 17.2c-.1.2.1.3.2.3h2c.9 0 1.7-.6 2-1.5l3.9-12.6 3.7 12.5c.3.9 1.1 1.5 2 1.5h2c.2 0 .3-.2.2-.3z"/></g></svg>